<?xml version="1.0" encoding="UTF-8"?>
<svg xmlns="http://www.w3.org/2000/svg" xmlns:xlink="http://www.w3.org/1999/xlink" width="24pt" height="24pt" viewBox="0 0 24 24" version="1.1">
<g id="surface1">
<path style=" stroke:none;fill-rule:nonzero;fill:rgb(0%,0%,0%);fill-opacity:1;" d="M 20.148438 2.632812 L 19.417969 2.632812 L 19.417969 1.832031 C 19.417969 0.820312 18.621094 0 17.636719 0 C 16.65625 0 15.855469 0.820312 15.855469 1.832031 L 15.855469 2.632812 L 14.03125 2.632812 L 14.03125 1.832031 C 14.03125 0.820312 13.234375 0 12.25 0 C 11.269531 0 10.46875 0.820312 10.46875 1.832031 L 10.46875 2.632812 L 8.644531 2.632812 L 8.644531 1.832031 C 8.644531 0.820312 7.847656 0 6.863281 0 C 5.882812 0 5.085938 0.820312 5.085938 1.832031 L 5.085938 2.632812 L 4.148438 2.632812 C 2.585938 2.632812 1.316406 3.902344 1.316406 5.464844 L 1.316406 21.464844 C 1.316406 23.027344 2.585938 24.296875 4.148438 24.296875 L 20.148438 24.296875 C 21.710938 24.296875 22.984375 23.027344 22.984375 21.464844 L 22.984375 5.464844 C 22.984375 3.902344 21.710938 2.632812 20.148438 2.632812 Z M 16.855469 1.832031 C 16.855469 1.375 17.207031 1 17.636719 1 C 18.066406 1 18.417969 1.375 18.417969 1.832031 L 18.417969 5.097656 C 18.417969 5.558594 18.066406 5.929688 17.636719 5.929688 C 17.207031 5.929688 16.855469 5.558594 16.855469 5.097656 Z M 11.46875 1.832031 C 11.46875 1.375 11.820312 1 12.25 1 C 12.679688 1 13.03125 1.375 13.03125 1.832031 L 13.03125 5.097656 C 13.03125 5.558594 12.679688 5.929688 12.25 5.929688 C 11.820312 5.929688 11.46875 5.558594 11.46875 5.097656 Z M 6.082031 1.832031 C 6.082031 1.375 6.433594 1 6.863281 1 C 7.292969 1 7.644531 1.375 7.644531 1.832031 L 7.644531 5.097656 C 7.644531 5.558594 7.292969 5.929688 6.863281 5.929688 C 6.433594 5.929688 6.082031 5.558594 6.082031 5.097656 Z M 21.316406 21.464844 C 21.316406 22.109375 20.792969 22.632812 20.148438 22.632812 L 4.148438 22.632812 C 3.507812 22.632812 2.984375 22.109375 2.984375 21.464844 L 2.984375 6.796875 L 21.316406 6.796875 Z M 21.316406 21.464844 "/>
<path style=" stroke:none;fill-rule:nonzero;fill:rgb(0%,0%,0%);fill-opacity:1;" d="M 4.484375 9.75 L 7.546875 9.75 L 7.546875 12.476562 L 4.484375 12.476562 Z M 4.484375 9.75 "/>
<path style=" stroke:none;fill-rule:nonzero;fill:rgb(0%,0%,0%);fill-opacity:1;" d="M 8.570312 9.75 L 11.636719 9.75 L 11.636719 12.476562 L 8.570312 12.476562 Z M 8.570312 9.75 "/>
<path style=" stroke:none;fill-rule:nonzero;fill:rgb(0%,0%,0%);fill-opacity:1;" d="M 12.664062 9.75 L 15.726562 9.75 L 15.726562 12.476562 L 12.664062 12.476562 Z M 12.664062 9.75 "/>
<path style=" stroke:none;fill-rule:nonzero;fill:rgb(0%,0%,0%);fill-opacity:1;" d="M 16.753906 9.75 L 19.816406 9.75 L 19.816406 12.476562 L 16.753906 12.476562 Z M 16.753906 9.75 "/>
<path style=" stroke:none;fill-rule:nonzero;fill:rgb(0%,0%,0%);fill-opacity:1;" d="M 4.484375 13.390625 L 7.546875 13.390625 L 7.546875 16.113281 L 4.484375 16.113281 Z M 4.484375 13.390625 "/>
<path style=" stroke:none;fill-rule:nonzero;fill:rgb(0%,0%,0%);fill-opacity:1;" d="M 8.570312 13.390625 L 11.636719 13.390625 L 11.636719 16.113281 L 8.570312 16.113281 Z M 8.570312 13.390625 "/>
<path style=" stroke:none;fill-rule:nonzero;fill:rgb(0%,0%,0%);fill-opacity:1;" d="M 12.664062 13.390625 L 15.726562 13.390625 L 15.726562 16.113281 L 12.664062 16.113281 Z M 12.664062 13.390625 "/>
<path style=" stroke:none;fill-rule:nonzero;fill:rgb(0%,0%,0%);fill-opacity:1;" d="M 16.753906 13.390625 L 19.816406 13.390625 L 19.816406 16.113281 L 16.753906 16.113281 Z M 16.753906 13.390625 "/>
<path style=" stroke:none;fill-rule:nonzero;fill:rgb(0%,0%,0%);fill-opacity:1;" d="M 4.484375 17.027344 L 7.546875 17.027344 L 7.546875 19.75 L 4.484375 19.75 Z M 4.484375 17.027344 "/>
<path style=" stroke:none;fill-rule:nonzero;fill:rgb(0%,0%,0%);fill-opacity:1;" d="M 8.570312 17.027344 L 11.636719 17.027344 L 11.636719 19.75 L 8.570312 19.75 Z M 8.570312 17.027344 "/>
<path style=" stroke:none;fill-rule:nonzero;fill:rgb(0%,0%,0%);fill-opacity:1;" d="M 12.664062 17.027344 L 15.726562 17.027344 L 15.726562 19.75 L 12.664062 19.75 Z M 12.664062 17.027344 "/>
<path style=" stroke:none;fill-rule:nonzero;fill:rgb(0%,0%,0%);fill-opacity:1;" d="M 16.753906 17.027344 L 19.816406 17.027344 L 19.816406 19.75 L 16.753906 19.75 Z M 16.753906 17.027344 "/>
</g>
</svg>
