<?xml version="1.0" encoding="UTF-8"?>
<svg xmlns="http://www.w3.org/2000/svg" xmlns:xlink="http://www.w3.org/1999/xlink" width="16pt" height="19pt" viewBox="0 0 16 19" version="1.1">
<g id="surface1">
<path style=" stroke:none;fill-rule:nonzero;fill:rgb(0%,0%,0%);fill-opacity:1;" d="M 1.230469 16.625 L 4 16.625 L 4 13.953125 L 1.230469 13.953125 Z M 4.617188 16.625 L 7.691406 16.625 L 7.691406 13.953125 L 4.617188 13.953125 Z M 1.230469 13.359375 L 4 13.359375 L 4 10.390625 L 1.230469 10.390625 Z M 4.617188 13.359375 L 7.691406 13.359375 L 7.691406 10.390625 L 4.617188 10.390625 Z M 1.230469 9.796875 L 4 9.796875 L 4 7.125 L 1.230469 7.125 Z M 8.308594 16.625 L 11.382812 16.625 L 11.382812 13.953125 L 8.308594 13.953125 Z M 4.617188 9.796875 L 7.691406 9.796875 L 7.691406 7.125 L 4.617188 7.125 Z M 12 16.625 L 14.769531 16.625 L 14.769531 13.953125 L 12 13.953125 Z M 8.308594 13.359375 L 11.382812 13.359375 L 11.382812 10.390625 L 8.308594 10.390625 Z M 4.921875 5.34375 L 4.921875 2.671875 C 4.921875 2.589844 4.894531 2.523438 4.832031 2.464844 C 4.769531 2.40625 4.699219 2.375 4.617188 2.375 L 4 2.375 C 3.917969 2.375 3.84375 2.40625 3.785156 2.464844 C 3.722656 2.523438 3.691406 2.589844 3.691406 2.671875 L 3.691406 5.34375 C 3.691406 5.425781 3.722656 5.492188 3.785156 5.550781 C 3.84375 5.609375 3.917969 5.640625 4 5.640625 L 4.617188 5.640625 C 4.699219 5.640625 4.769531 5.609375 4.832031 5.550781 C 4.894531 5.492188 4.921875 5.425781 4.921875 5.34375 Z M 12 13.359375 L 14.769531 13.359375 L 14.769531 10.390625 L 12 10.390625 Z M 8.308594 9.796875 L 11.382812 9.796875 L 11.382812 7.125 L 8.308594 7.125 Z M 12 9.796875 L 14.769531 9.796875 L 14.769531 7.125 L 12 7.125 Z M 12.308594 5.34375 L 12.308594 2.671875 C 12.308594 2.589844 12.277344 2.523438 12.214844 2.464844 C 12.15625 2.40625 12.082031 2.375 12 2.375 L 11.382812 2.375 C 11.300781 2.375 11.230469 2.40625 11.167969 2.464844 C 11.105469 2.523438 11.078125 2.589844 11.078125 2.671875 L 11.078125 5.34375 C 11.078125 5.425781 11.105469 5.492188 11.167969 5.550781 C 11.230469 5.609375 11.300781 5.640625 11.382812 5.640625 L 12 5.640625 C 12.082031 5.640625 12.15625 5.609375 12.214844 5.550781 C 12.277344 5.492188 12.308594 5.425781 12.308594 5.34375 Z M 16 4.75 L 16 16.625 C 16 16.945312 15.878906 17.226562 15.632812 17.460938 C 15.390625 17.695312 15.101562 17.8125 14.769531 17.8125 L 1.230469 17.8125 C 0.898438 17.8125 0.609375 17.695312 0.367188 17.460938 C 0.121094 17.226562 0 16.945312 0 16.625 L 0 4.75 C 0 4.429688 0.121094 4.148438 0.367188 3.914062 C 0.609375 3.679688 0.898438 3.5625 1.230469 3.5625 L 2.460938 3.5625 L 2.460938 2.671875 C 2.460938 2.265625 2.613281 1.914062 2.914062 1.625 C 3.214844 1.332031 3.578125 1.1875 4 1.1875 L 4.617188 1.1875 C 5.039062 1.1875 5.402344 1.332031 5.703125 1.625 C 6.003906 1.914062 6.152344 2.265625 6.152344 2.671875 L 6.152344 3.5625 L 9.847656 3.5625 L 9.847656 2.671875 C 9.847656 2.265625 9.996094 1.914062 10.296875 1.625 C 10.597656 1.332031 10.960938 1.1875 11.382812 1.1875 L 12 1.1875 C 12.421875 1.1875 12.785156 1.332031 13.085938 1.625 C 13.386719 1.914062 13.539062 2.265625 13.539062 2.671875 L 13.539062 3.5625 L 14.769531 3.5625 C 15.101562 3.5625 15.390625 3.679688 15.632812 3.914062 C 15.878906 4.148438 16 4.429688 16 4.75 Z M 16 4.75 "/>
</g>
</svg>
