<?xml version="1.0" encoding="UTF-8"?>
<svg xmlns="http://www.w3.org/2000/svg" xmlns:xlink="http://www.w3.org/1999/xlink" width="18pt" height="20pt" viewBox="0 0 18 20" version="1.1">
<g id="surface1">
<path style=" stroke:none;fill-rule:nonzero;fill:rgb(0%,0%,0%);fill-opacity:1;" d="M 16.714844 15.9375 L 16.714844 8.4375 C 16.5 8.671875 16.269531 8.886719 16.019531 9.082031 C 14.226562 10.421875 12.800781 11.523438 11.742188 12.382812 C 11.402344 12.664062 11.121094 12.882812 10.910156 13.039062 C 10.695312 13.195312 10.40625 13.351562 10.039062 13.511719 C 9.675781 13.671875 9.332031 13.75 9.011719 13.75 L 8.988281 13.75 C 8.667969 13.75 8.324219 13.671875 7.960938 13.511719 C 7.59375 13.351562 7.304688 13.195312 7.089844 13.039062 C 6.878906 12.882812 6.597656 12.664062 6.257812 12.382812 C 5.199219 11.523438 3.773438 10.421875 1.980469 9.082031 C 1.730469 8.886719 1.5 8.671875 1.285156 8.4375 L 1.285156 15.9375 C 1.285156 16.023438 1.316406 16.09375 1.382812 16.15625 C 1.445312 16.21875 1.519531 16.25 1.605469 16.25 L 16.394531 16.25 C 16.480469 16.25 16.554688 16.21875 16.617188 16.15625 C 16.683594 16.09375 16.714844 16.023438 16.714844 15.9375 Z M 16.714844 5.671875 L 16.714844 5.433594 C 16.714844 5.433594 16.710938 5.390625 16.710938 5.308594 C 16.707031 5.222656 16.695312 5.183594 16.679688 5.1875 C 16.664062 5.1875 16.644531 5.160156 16.625 5.097656 C 16.605469 5.035156 16.574219 5.011719 16.535156 5.023438 C 16.492188 5.039062 16.445312 5.03125 16.394531 5 L 1.605469 5 C 1.519531 5 1.445312 5.03125 1.382812 5.09375 C 1.316406 5.15625 1.285156 5.226562 1.285156 5.3125 C 1.285156 6.40625 1.777344 7.332031 2.761719 8.085938 C 4.054688 9.074219 5.398438 10.109375 6.789062 11.179688 C 6.832031 11.214844 6.949219 11.308594 7.140625 11.46875 C 7.335938 11.628906 7.488281 11.75 7.605469 11.835938 C 7.71875 11.921875 7.867188 12.023438 8.050781 12.144531 C 8.234375 12.265625 8.402344 12.351562 8.558594 12.414062 C 8.710938 12.46875 8.855469 12.5 8.988281 12.5 L 9.011719 12.5 C 9.144531 12.5 9.289062 12.46875 9.441406 12.414062 C 9.597656 12.351562 9.765625 12.265625 9.949219 12.144531 C 10.132812 12.023438 10.28125 11.921875 10.394531 11.835938 C 10.511719 11.75 10.664062 11.628906 10.859375 11.46875 C 11.050781 11.308594 11.167969 11.214844 11.210938 11.179688 C 12.601562 10.109375 13.945312 9.074219 15.238281 8.085938 C 15.597656 7.804688 15.9375 7.429688 16.246094 6.957031 C 16.558594 6.484375 16.714844 6.058594 16.714844 5.671875 Z M 18 5.3125 L 18 15.9375 C 18 16.367188 17.84375 16.734375 17.527344 17.039062 C 17.214844 17.347656 16.835938 17.5 16.394531 17.5 L 1.605469 17.5 C 1.164062 17.5 0.785156 17.347656 0.472656 17.039062 C 0.15625 16.734375 0 16.367188 0 15.9375 L 0 5.3125 C 0 4.882812 0.15625 4.515625 0.472656 4.210938 C 0.785156 3.902344 1.164062 3.75 1.605469 3.75 L 16.394531 3.75 C 16.835938 3.75 17.214844 3.902344 17.527344 4.210938 C 17.84375 4.515625 18 4.882812 18 5.3125 Z M 18 5.3125 "/>
</g>
</svg>
