<?xml version="1.0" encoding="UTF-8"?>
<svg xmlns="http://www.w3.org/2000/svg" xmlns:xlink="http://www.w3.org/1999/xlink" width="14pt" height="20pt" viewBox="0 0 14 20" version="1.1">
<g id="surface1">
<path style=" stroke:none;fill-rule:nonzero;fill:rgb(0%,0%,0%);fill-opacity:1;" d="M 14 14.96875 C 14 15.75 13.757812 16.367188 13.273438 16.820312 C 12.789062 17.273438 12.148438 17.5 11.34375 17.5 L 2.65625 17.5 C 1.851562 17.5 1.210938 17.273438 0.726562 16.820312 C 0.242188 16.367188 0 15.75 0 14.96875 C 0 14.625 0.0117188 14.289062 0.0351562 13.960938 C 0.0585938 13.632812 0.105469 13.277344 0.175781 12.894531 C 0.242188 12.515625 0.332031 12.160156 0.4375 11.835938 C 0.542969 11.511719 0.6875 11.191406 0.863281 10.882812 C 1.042969 10.574219 1.25 10.3125 1.480469 10.09375 C 1.714844 9.875 1.996094 9.699219 2.332031 9.570312 C 2.667969 9.441406 3.035156 9.375 3.441406 9.375 C 3.5 9.375 3.640625 9.445312 3.859375 9.585938 C 4.078125 9.726562 4.324219 9.882812 4.597656 10.054688 C 4.875 10.226562 5.230469 10.382812 5.671875 10.523438 C 6.113281 10.664062 6.554688 10.734375 7 10.734375 C 7.445312 10.734375 7.886719 10.664062 8.328125 10.523438 C 8.769531 10.382812 9.125 10.226562 9.402344 10.054688 C 9.675781 9.882812 9.921875 9.726562 10.140625 9.585938 C 10.359375 9.445312 10.5 9.375 10.558594 9.375 C 10.964844 9.375 11.332031 9.441406 11.667969 9.570312 C 12.003906 9.699219 12.285156 9.875 12.519531 10.09375 C 12.75 10.3125 12.957031 10.574219 13.136719 10.882812 C 13.3125 11.191406 13.457031 11.511719 13.5625 11.835938 C 13.667969 12.160156 13.757812 12.515625 13.824219 12.894531 C 13.894531 13.277344 13.941406 13.632812 13.964844 13.960938 C 13.988281 14.289062 14 14.625 14 14.96875 Z M 10.816406 6.25 C 10.816406 7.285156 10.445312 8.167969 9.699219 8.902344 C 8.953125 9.632812 8.054688 10 7 10 C 5.945312 10 5.046875 9.632812 4.300781 8.902344 C 3.554688 8.167969 3.183594 7.285156 3.183594 6.25 C 3.183594 5.214844 3.554688 4.332031 4.300781 3.597656 C 5.046875 2.867188 5.945312 2.5 7 2.5 C 8.054688 2.5 8.953125 2.867188 9.699219 3.597656 C 10.445312 4.332031 10.816406 5.214844 10.816406 6.25 Z M 10.816406 6.25 "/>
</g>
</svg>
