<?xml version="1.0" encoding="UTF-8"?>
<svg xmlns="http://www.w3.org/2000/svg" xmlns:xlink="http://www.w3.org/1999/xlink" width="15pt" height="20pt" viewBox="0 0 15 20" version="1.1">
<g id="surface1">
<path style=" stroke:none;fill-rule:nonzero;fill:rgb(0%,0%,0%);fill-opacity:1;" d="M 8.75 6.5625 L 8.75 10.9375 C 8.75 11.027344 8.71875 11.101562 8.664062 11.164062 C 8.601562 11.21875 8.527344 11.25 8.4375 11.25 L 5.3125 11.25 C 5.222656 11.25 5.148438 11.21875 5.085938 11.164062 C 5.03125 11.101562 5 11.027344 5 10.9375 L 5 10.3125 C 5 10.222656 5.03125 10.148438 5.085938 10.085938 C 5.148438 10.03125 5.222656 10 5.3125 10 L 7.5 10 L 7.5 6.5625 C 7.5 6.472656 7.53125 6.398438 7.585938 6.335938 C 7.648438 6.28125 7.722656 6.25 7.8125 6.25 L 8.4375 6.25 C 8.527344 6.25 8.601562 6.28125 8.664062 6.335938 C 8.71875 6.398438 8.75 6.472656 8.75 6.5625 Z M 12.8125 10 C 12.8125 9.035156 12.574219 8.148438 12.101562 7.335938 C 11.625 6.519531 10.980469 5.875 10.164062 5.398438 C 9.351562 4.925781 8.464844 4.6875 7.5 4.6875 C 6.535156 4.6875 5.648438 4.925781 4.835938 5.398438 C 4.019531 5.875 3.375 6.519531 2.898438 7.335938 C 2.425781 8.148438 2.1875 9.035156 2.1875 10 C 2.1875 10.964844 2.425781 11.851562 2.898438 12.664062 C 3.375 13.480469 4.019531 14.125 4.835938 14.601562 C 5.648438 15.074219 6.535156 15.3125 7.5 15.3125 C 8.464844 15.3125 9.351562 15.074219 10.164062 14.601562 C 10.980469 14.125 11.625 13.480469 12.101562 12.664062 C 12.574219 11.851562 12.8125 10.964844 12.8125 10 Z M 15 10 C 15 11.359375 14.664062 12.617188 13.992188 13.765625 C 13.324219 14.914062 12.414062 15.824219 11.265625 16.492188 C 10.117188 17.164062 8.859375 17.5 7.5 17.5 C 6.140625 17.5 4.882812 17.164062 3.734375 16.492188 C 2.585938 15.824219 1.675781 14.914062 1.007812 13.765625 C 0.335938 12.617188 0 11.359375 0 10 C 0 8.640625 0.335938 7.382812 1.007812 6.234375 C 1.675781 5.085938 2.585938 4.175781 3.734375 3.507812 C 4.882812 2.835938 6.140625 2.5 7.5 2.5 C 8.859375 2.5 10.117188 2.835938 11.265625 3.507812 C 12.414062 4.175781 13.324219 5.085938 13.992188 6.234375 C 14.664062 7.382812 15 8.640625 15 10 Z M 15 10 "/>
</g>
</svg>
