<?xml version="1.0" encoding="UTF-8"?>
<svg xmlns="http://www.w3.org/2000/svg" xmlns:xlink="http://www.w3.org/1999/xlink" width="19pt" height="20pt" viewBox="0 0 19 20" version="1.1">
<g id="surface1">
<path style=" stroke:none;fill-rule:nonzero;fill:rgb(0%,0%,0%);fill-opacity:1;" d="M 5.867188 10 C 4.800781 10.03125 3.925781 10.449219 3.246094 11.25 L 1.917969 11.25 C 1.378906 11.25 0.921875 11.117188 0.554688 10.855469 C 0.183594 10.589844 0 10.203125 0 9.695312 C 0 7.398438 0.410156 6.25 1.226562 6.25 C 1.265625 6.25 1.410156 6.320312 1.65625 6.453125 C 1.90625 6.59375 2.226562 6.730469 2.621094 6.871094 C 3.019531 7.011719 3.410156 7.078125 3.800781 7.078125 C 4.242188 7.078125 4.679688 7.003906 5.117188 6.855469 C 5.082031 7.097656 5.066406 7.3125 5.066406 7.5 C 5.066406 8.40625 5.332031 9.238281 5.867188 10 Z M 16.464844 16.21875 C 16.464844 17 16.226562 17.617188 15.746094 18.070312 C 15.261719 18.523438 14.621094 18.75 13.824219 18.75 L 5.175781 18.75 C 4.378906 18.75 3.738281 18.523438 3.253906 18.070312 C 2.773438 17.617188 2.535156 17 2.535156 16.21875 C 2.535156 15.875 2.542969 15.539062 2.566406 15.210938 C 2.589844 14.882812 2.636719 14.527344 2.707031 14.144531 C 2.777344 13.765625 2.863281 13.410156 2.96875 13.085938 C 3.074219 12.761719 3.214844 12.441406 3.394531 12.132812 C 3.574219 11.824219 3.777344 11.5625 4.007812 11.34375 C 4.238281 11.125 4.519531 10.949219 4.855469 10.820312 C 5.1875 10.691406 5.554688 10.625 5.957031 10.625 C 6.023438 10.625 6.164062 10.695312 6.382812 10.835938 C 6.601562 10.976562 6.839844 11.132812 7.105469 11.304688 C 7.367188 11.476562 7.722656 11.632812 8.164062 11.773438 C 8.605469 11.914062 9.050781 11.984375 9.5 11.984375 C 9.949219 11.984375 10.394531 11.914062 10.835938 11.773438 C 11.277344 11.632812 11.632812 11.476562 11.894531 11.304688 C 12.160156 11.132812 12.398438 10.976562 12.617188 10.835938 C 12.835938 10.695312 12.976562 10.625 13.042969 10.625 C 13.445312 10.625 13.8125 10.691406 14.144531 10.820312 C 14.480469 10.949219 14.761719 11.125 14.992188 11.34375 C 15.222656 11.5625 15.425781 11.824219 15.605469 12.132812 C 15.785156 12.441406 15.925781 12.761719 16.03125 13.085938 C 16.136719 13.410156 16.222656 13.765625 16.292969 14.144531 C 16.363281 14.527344 16.410156 14.882812 16.433594 15.210938 C 16.457031 15.539062 16.464844 15.875 16.464844 16.21875 Z M 6.332031 3.75 C 6.332031 4.441406 6.085938 5.03125 5.589844 5.515625 C 5.097656 6.007812 4.5 6.25 3.800781 6.25 C 3.101562 6.25 2.503906 6.007812 2.007812 5.515625 C 1.515625 5.03125 1.265625 4.441406 1.265625 3.75 C 1.265625 3.058594 1.515625 2.46875 2.007812 1.984375 C 2.503906 1.492188 3.101562 1.25 3.800781 1.25 C 4.5 1.25 5.097656 1.492188 5.589844 1.984375 C 6.085938 2.46875 6.332031 3.058594 6.332031 3.75 Z M 13.300781 7.5 C 13.300781 8.535156 12.929688 9.417969 12.1875 10.152344 C 11.445312 10.882812 10.550781 11.25 9.5 11.25 C 8.449219 11.25 7.554688 10.882812 6.8125 10.152344 C 6.070312 9.417969 5.699219 8.535156 5.699219 7.5 C 5.699219 6.464844 6.070312 5.582031 6.8125 4.847656 C 7.554688 4.117188 8.449219 3.75 9.5 3.75 C 10.550781 3.75 11.445312 4.117188 12.1875 4.847656 C 12.929688 5.582031 13.300781 6.464844 13.300781 7.5 Z M 19 9.695312 C 19 10.203125 18.816406 10.589844 18.445312 10.855469 C 18.078125 11.117188 17.621094 11.25 17.082031 11.25 L 15.753906 11.25 C 15.074219 10.449219 14.199219 10.03125 13.132812 10 C 13.667969 9.238281 13.933594 8.40625 13.933594 7.5 C 13.933594 7.3125 13.917969 7.097656 13.882812 6.855469 C 14.320312 7.003906 14.757812 7.078125 15.199219 7.078125 C 15.589844 7.078125 15.980469 7.011719 16.378906 6.871094 C 16.773438 6.730469 17.09375 6.59375 17.34375 6.453125 C 17.589844 6.320312 17.734375 6.25 17.773438 6.25 C 18.589844 6.25 19 7.398438 19 9.695312 Z M 17.734375 3.75 C 17.734375 4.441406 17.484375 5.03125 16.992188 5.515625 C 16.496094 6.007812 15.898438 6.25 15.199219 6.25 C 14.5 6.25 13.902344 6.007812 13.410156 5.515625 C 12.914062 5.03125 12.667969 4.441406 12.667969 3.75 C 12.667969 3.058594 12.914062 2.46875 13.410156 1.984375 C 13.902344 1.492188 14.5 1.25 15.199219 1.25 C 15.898438 1.25 16.496094 1.492188 16.992188 1.984375 C 17.484375 2.46875 17.734375 3.058594 17.734375 3.75 Z M 17.734375 3.75 "/>
</g>
</svg>
