<?xml version="1.0" encoding="UTF-8"?>
<svg
    xmlns="http://www.w3.org/2000/svg"
    xmlns:xlink="http://www.w3.org/1999/xlink" width="8pt" height="12pt" viewBox="0 0 8 12" version="1.1">
    <g id="surface1">
        <path style=" fill:#fcda9a" d="M 4.253906 5.996094 L 7.523438 9.183594 C 7.75 9.402344 7.75 9.753906 7.523438 9.976562 L 6.980469 10.503906 C 6.753906 10.726562 6.386719 10.726562 6.164062 10.503906 L 3.847656 8.246094 L 1.53125 10.503906 C 1.304688 10.730469 0.9375 10.730469 0.714844 10.503906 L 0.167969 9.980469 C -0.0585938 9.753906 -0.0585938 9.402344 0.167969 9.183594 L 3.4375 5.996094 C 3.664062 5.769531 4.03125 5.769531 4.253906 5.996094 Z M 3.4375 1.496094 L 0.167969 4.683594 C -0.0585938 4.902344 -0.0585938 5.253906 0.167969 5.476562 L 0.710938 6.003906 C 0.9375 6.226562 1.304688 6.226562 1.527344 6.003906 L 3.84375 3.746094 L 6.160156 6.003906 C 6.386719 6.226562 6.75 6.226562 6.976562 6.003906 L 7.519531 5.476562 C 7.746094 5.253906 7.746094 4.898438 7.519531 4.683594 L 4.25 1.496094 C 4.03125 1.269531 3.664062 1.269531 3.4375 1.496094 Z M 3.4375 1.496094 "/>
    </g>
</svg>
