<?xml version="1.0" encoding="UTF-8"?>
<svg xmlns="http://www.w3.org/2000/svg" xmlns:xlink="http://www.w3.org/1999/xlink" width="24pt" height="24pt" viewBox="0 0 24 24" version="1.1">
<g id="surface1">
<path style=" stroke:none;fill-rule:nonzero;fill:rgb(0%,0%,0%);fill-opacity:1;" d="M 7.65625 18.667969 C 6.273438 18.667969 5.148438 19.789062 5.148438 21.171875 C 5.148438 22.558594 6.273438 23.679688 7.65625 23.679688 C 9.039062 23.679688 10.160156 22.558594 10.160156 21.171875 C 10.160156 19.789062 9.039062 18.667969 7.65625 18.667969 Z M 7.65625 22.566406 C 6.886719 22.566406 6.265625 21.941406 6.265625 21.171875 C 6.265625 20.40625 6.886719 19.78125 7.65625 19.78125 C 8.425781 19.78125 9.046875 20.40625 9.046875 21.171875 C 9.046875 21.941406 8.425781 22.566406 7.65625 22.566406 Z M 7.65625 22.566406 "/>
<path style=" stroke:none;fill-rule:nonzero;fill:rgb(0%,0%,0%);fill-opacity:1;" d="M 18.234375 18.667969 C 16.851562 18.667969 15.730469 19.789062 15.730469 21.171875 C 15.730469 22.558594 16.851562 23.679688 18.234375 23.679688 C 19.617188 23.679688 20.742188 22.558594 20.742188 21.171875 C 20.742188 19.789062 19.617188 18.667969 18.234375 18.667969 Z M 18.234375 22.566406 C 17.464844 22.566406 16.84375 21.941406 16.84375 21.171875 C 16.84375 20.40625 17.464844 19.78125 18.234375 19.78125 C 19.003906 19.78125 19.628906 20.40625 19.628906 21.171875 C 19.628906 21.941406 19.003906 22.566406 18.234375 22.566406 Z M 18.234375 22.566406 "/>
<path style=" stroke:none;fill-rule:nonzero;fill:rgb(0%,0%,0%);fill-opacity:1;" d="M 23.886719 4.050781 C 23.769531 3.925781 23.613281 3.847656 23.441406 3.828125 L 5.316406 3.578125 L 4.816406 2.046875 C 4.464844 1.023438 3.503906 0.332031 2.421875 0.320312 L 0.558594 0.320312 C 0.25 0.320312 0 0.570312 0 0.878906 C 0 1.183594 0.25 1.433594 0.558594 1.433594 L 2.421875 1.433594 C 3.027344 1.449219 3.558594 1.835938 3.757812 2.410156 L 7.292969 13.070312 L 7.015625 13.710938 C 6.707031 14.511719 6.796875 15.414062 7.265625 16.132812 C 7.730469 16.839844 8.507812 17.277344 9.355469 17.304688 L 20.183594 17.304688 C 20.492188 17.304688 20.742188 17.054688 20.742188 16.746094 C 20.742188 16.4375 20.492188 16.191406 20.183594 16.191406 L 9.355469 16.191406 C 8.875 16.179688 8.4375 15.925781 8.183594 15.523438 C 7.933594 15.121094 7.882812 14.628906 8.046875 14.183594 L 8.269531 13.683594 L 19.988281 12.460938 C 21.277344 12.316406 22.335938 11.382812 22.632812 10.121094 L 23.96875 4.523438 C 24.03125 4.363281 24 4.183594 23.886719 4.050781 Z M 21.546875 9.871094 C 21.367188 10.679688 20.679688 11.28125 19.851562 11.347656 L 8.269531 12.542969 L 5.679688 4.691406 L 22.746094 4.941406 Z M 21.546875 9.871094 "/>
</g>
</svg>
