<?xml version="1.0" encoding="UTF-8"?>
<svg xmlns="http://www.w3.org/2000/svg" xmlns:xlink="http://www.w3.org/1999/xlink" width="16pt" height="16pt" viewBox="0 0 16 16" version="1.1">
<g id="surface1">
<path style=" stroke:none;fill-rule:nonzero;fill:rgb(0%,0%,0%);fill-opacity:1;" d="M 15.5 4 L 15.5 4.5 C 15.5 4.636719 15.386719 4.75 15.25 4.75 L 14.5 4.75 L 14.5 5.125 C 14.5 5.332031 14.332031 5.5 14.125 5.5 L 1.875 5.5 C 1.667969 5.5 1.5 5.332031 1.5 5.125 L 1.5 4.75 L 0.75 4.75 C 0.613281 4.75 0.5 4.636719 0.5 4.5 L 0.5 4 C 0.5 3.898438 0.5625 3.808594 0.65625 3.769531 L 7.90625 1.019531 C 7.964844 0.992188 8.035156 0.992188 8.09375 1.019531 L 15.34375 3.769531 C 15.4375 3.808594 15.5 3.898438 15.5 4 Z M 14.75 13.5 L 1.25 13.5 C 0.835938 13.5 0.5 13.835938 0.5 14.25 L 0.5 14.75 C 0.5 14.886719 0.613281 15 0.75 15 L 15.25 15 C 15.386719 15 15.5 14.886719 15.5 14.75 L 15.5 14.25 C 15.5 13.835938 15.164062 13.5 14.75 13.5 Z M 3 6 L 3 12 L 1.875 12 C 1.667969 12 1.5 12.167969 1.5 12.375 L 1.5 13 L 14.5 13 L 14.5 12.375 C 14.5 12.167969 14.332031 12 14.125 12 L 13 12 L 13 6 L 11 6 L 11 12 L 9 12 L 9 6 L 7 6 L 7 12 L 5 12 L 5 6 Z M 3 6 "/>
</g>
</svg>
