<?xml version="1.0" encoding="UTF-8"?>
<svg xmlns="http://www.w3.org/2000/svg" xmlns:xlink="http://www.w3.org/1999/xlink" width="24pt" height="24pt" viewBox="0 0 24 24" version="1.1">
<g id="surface1">
<path style=" stroke:none;fill-rule:nonzero;fill:rgb(0%,0%,0%);fill-opacity:1;" d="M 12.835938 0.242188 C 12.675781 -0.0820312 12.148438 -0.0820312 11.984375 0.242188 C 10.605469 2.757812 9.347656 5.316406 8.617188 8.074219 C 8.535156 8.480469 8.984375 8.886719 9.347656 8.640625 C 10.160156 8.074219 10.847656 7.382812 11.457031 6.574219 C 11.296875 12.253906 10.523438 18.136719 11.863281 23.734375 C 11.945312 24.140625 12.632812 24.0625 12.59375 23.65625 C 11.863281 17.851562 12.429688 12.089844 12.511719 6.289062 C 13.203125 6.898438 13.890625 7.507812 14.542969 8.113281 C 14.824219 8.398438 15.433594 8.238281 15.394531 7.75 C 15.070312 5.070312 14.175781 2.554688 12.835938 0.242188 Z M 12.390625 5.070312 C 12.148438 4.707031 11.457031 4.789062 11.457031 5.355469 C 11.457031 5.394531 11.457031 5.4375 11.457031 5.4375 C 10.96875 5.925781 10.523438 6.410156 9.996094 6.898438 C 10.644531 5.03125 11.457031 3.285156 12.390625 1.542969 C 13.203125 3.125 13.8125 4.746094 14.136719 6.492188 C 13.6875 6.085938 13.203125 5.679688 12.753906 5.234375 C 12.675781 5.070312 12.511719 5.03125 12.390625 5.070312 Z M 12.390625 5.070312 "/>
</g>
</svg>
