<?xml version="1.0" encoding="UTF-8"?>
<svg xmlns="http://www.w3.org/2000/svg" xmlns:xlink="http://www.w3.org/1999/xlink" width="24pt" height="24pt" viewBox="0 0 24 24" version="1.1">
<g id="surface1">
<path style=" stroke:none;fill-rule:nonzero;fill:rgb(0%,0%,0%);fill-opacity:1;" d="M 11.828125 11.5625 C 13.417969 11.5625 14.792969 10.992188 15.917969 9.867188 C 17.039062 8.742188 17.609375 7.367188 17.609375 5.78125 C 17.609375 4.191406 17.039062 2.816406 15.917969 1.691406 C 14.792969 0.570312 13.417969 0 11.828125 0 C 10.242188 0 8.867188 0.570312 7.742188 1.691406 C 6.617188 2.816406 6.046875 4.191406 6.046875 5.78125 C 6.046875 7.367188 6.617188 8.742188 7.742188 9.867188 C 8.867188 10.992188 10.242188 11.5625 11.828125 11.5625 Z M 11.828125 11.5625 "/>
<path style=" stroke:none;fill-rule:nonzero;fill:rgb(0%,0%,0%);fill-opacity:1;" d="M 21.945312 18.453125 C 21.910156 17.988281 21.84375 17.476562 21.75 16.9375 C 21.652344 16.394531 21.527344 15.882812 21.375 15.414062 C 21.222656 14.929688 21.011719 14.449219 20.75 13.992188 C 20.480469 13.515625 20.160156 13.101562 19.804688 12.761719 C 19.429688 12.402344 18.972656 12.117188 18.445312 11.90625 C 17.921875 11.699219 17.335938 11.59375 16.714844 11.59375 C 16.46875 11.59375 16.230469 11.695312 15.773438 11.992188 C 15.492188 12.175781 15.164062 12.386719 14.792969 12.621094 C 14.480469 12.824219 14.054688 13.011719 13.527344 13.179688 C 13.015625 13.347656 12.496094 13.429688 11.980469 13.429688 C 11.464844 13.429688 10.945312 13.347656 10.429688 13.179688 C 9.90625 13.011719 9.480469 12.824219 9.164062 12.621094 C 8.800781 12.390625 8.472656 12.175781 8.1875 11.992188 C 7.730469 11.695312 7.492188 11.59375 7.246094 11.59375 C 6.621094 11.59375 6.039062 11.699219 5.511719 11.90625 C 4.984375 12.117188 4.527344 12.402344 4.15625 12.761719 C 3.800781 13.101562 3.480469 13.515625 3.210938 13.992188 C 2.949219 14.449219 2.738281 14.929688 2.585938 15.414062 C 2.433594 15.882812 2.308594 16.394531 2.210938 16.9375 C 2.113281 17.476562 2.050781 17.988281 2.015625 18.457031 C 1.984375 18.914062 1.96875 19.390625 1.96875 19.871094 C 1.96875 21.125 2.367188 22.140625 3.152344 22.886719 C 3.929688 23.625 4.953125 24 6.203125 24 L 17.757812 24 C 19.007812 24 20.03125 23.625 20.808594 22.886719 C 21.59375 22.140625 21.992188 21.125 21.992188 19.871094 C 21.992188 19.390625 21.976562 18.910156 21.945312 18.453125 Z M 21.945312 18.453125 "/>
</g>
</svg>
